<svg width="500" height="500" version="1.1" xmlns="http://www.w3.org/2000/svg" desc="Created with imagetracer.js version 1.2.6" ><path fill="rgb(254,254,254)" stroke="rgb(254,254,254)" stroke-width="1" opacity="0.9176470588235294" d="M 42.5 185 L 48 185 L 48 200 Q 40.7 199.4 38 204.5 L 37 208.5 L 37 231.5 L 31.5 238 L 25 240.5 L 32.5 244 L 36 247.5 L 37 249.5 L 37 273.5 L 38 277.5 L 40.5 280 L 48 282 L 48 296 L 35.5 296 L 26.5 293 L 23 289.5 L 20 281.5 L 20 255.5 L 14.5 250 L 4 249 L 4 233 L 10.5 233 L 18 230 L 20 226.5 L 20 199.5 Q 21.1 192.1 26.5 189 L 30.5 187 L 41.5 186 L 42.5 185 Z " /><path fill="rgb(254,254,254)" stroke="rgb(254,254,254)" stroke-width="1" opacity="0.9176470588235294" d="M 452 185 L 469.5 187 L 478 193.5 L 480 202.5 L 480 227.5 L 483.5 231 Q 487.8 234 495 233 L 495 249 L 488.5 249 Q 482.8 250.3 480 254.5 L 480 279.5 Q 477.8 280.8 479 285.5 L 473.5 293 Q 465.4 297.6 452 296 L 452 282.5 L 453.5 282 L 459.5 280 L 462 277.5 L 462 253.5 Q 462.9 246.9 467.5 244 L 475 240.5 L 466 237 L 462 227.5 L 462 204.5 L 458.5 201 L 452 200 L 452 185 Z " /><path fill="rgb(254,254,254)" stroke="rgb(254,254,254)" stroke-width="1" opacity="0.9176470588235294" d="M 69 207 L 78.5 207 L 80 208.5 L 80 228.5 L 81.5 230 Q 86.3 230.8 87 227.5 L 87 207 L 96.5 207 L 98 208.5 L 98 229.5 Q 96.6 235.6 91.5 238 L 89 239.5 L 89 260 L 78 260 L 78 239.5 L 76.5 239 L 70 233.5 L 69 230.5 L 69 207 Z " /><path fill="rgb(254,254,254)" stroke="rgb(254,254,254)" stroke-width="1" opacity="0.9176470588235294" d="M 190 207 L 199.5 207 L 200 207.5 L 200 249.5 Q 201.2 252 205 251 Q 206.6 253.1 206 258.5 L 204.5 260 L 195.5 260 L 191 256.5 L 190 254.5 L 190 207 Z " /><path fill="rgb(254,254,254)" stroke="rgb(254,254,254)" stroke-width="1" opacity="0.9176470588235294" d="M 218.5 207 Q 224.5 205.5 226 208.5 L 226 216 L 221.5 216 Q 219 217.2 220 221 L 226 221 L 226 230 L 220.5 230 L 220 230.5 L 220 260 L 210 260 L 210 230.5 L 206 230 L 206 221 L 210 221 L 210 213.5 L 213.5 209 L 218.5 207 Z " /><path fill="rgb(254,254,254)" stroke="rgb(254,254,254)" stroke-width="1" opacity="0.9176470588235294" d="M 292 207 L 301.5 207 L 302 207.5 L 302 252.5 L 298.5 258 Q 294.3 262.3 284.5 261 L 277 255.5 L 275 249.5 L 275 231.5 Q 276.1 224.1 281.5 221 L 289.5 220 L 292 221 L 292 207 Z M 289 229 L 286 232 L 286 251 L 290 252 L 292 250 L 292 232 L 289 229 Z " /><path fill="rgb(254,254,254)" stroke="rgb(254,254,254)" stroke-width="1" opacity="0.9176470588235294" d="M 306 207 L 323.5 207 L 332 211.5 L 335 217.5 L 335 249.5 Q 333.5 256 328.5 259 L 325.5 260 L 306 260 L 306 207 Z M 317 217 L 317 250 L 318 250 L 323 250 L 324 248 L 324 220 Q 323 216 317 217 Z " /><path fill="rgb(254,254,254)" stroke="rgb(254,254,254)" stroke-width="1" opacity="0.9176470588235294" d="M 427.5 207 L 436 207 L 436 210.5 L 421 260 L 411.5 260 L 411 258.5 L 424 214.5 L 427.5 207 Z " /><path fill="rgb(254,254,254)" stroke="rgb(254,254,254)" stroke-width="1" opacity="0.9176470588235294" d="M 110.5 220 Q 122.2 219.3 126 226.5 L 127 229.5 L 127 251.5 Q 125.6 257.6 120.5 260 L 109.5 261 Q 103.4 259.6 101 254.5 L 100 251.5 L 100 229.5 L 105.5 222 L 110.5 220 Z M 114 229 L 113 230 L 111 231 L 111 251 L 115 252 L 117 249 L 116 230 L 114 229 Z " /><path fill="rgb(254,254,254)" stroke="rgb(254,254,254)" stroke-width="1" opacity="0.9176470588235294" d="M 140.5 220 Q 152.2 219.3 156 226.5 L 157 229.5 L 157 260 L 147.5 260 L 146 258.5 L 146 230.5 L 144.5 230 L 142.5 230 L 141 230.5 L 141 258.5 L 139.5 260 L 130 260 L 130 229.5 L 135.5 222 L 140.5 220 Z " /><path fill="rgb(254,254,254)" stroke="rgb(254,254,254)" stroke-width="1" opacity="0.9176470588235294" d="M 169.5 220 Q 180.3 218.7 184 224.5 L 186 228.5 L 186 253.5 L 181.5 259 Q 177.1 262.1 168.5 261 L 161 255.5 L 159 246.5 L 161 240.5 L 163.5 238 Q 167.7 234.5 176 236 Q 177.3 230.5 173.5 229 L 168.5 229 L 163.5 231 L 161 224.5 L 163.5 222 L 169.5 220 Z M 175 243 L 170 246 Q 169 251 173 252 L 176 250 Q 177 242 175 243 Z " /><path fill="rgb(254,254,254)" stroke="rgb(254,254,254)" stroke-width="1" opacity="0.9176470588235294" d="M 237.5 220 Q 244.3 218.3 246 221.5 Q 247.8 228.3 244.5 230 Q 239.3 228.8 238 231.5 L 237 234.5 L 237 260 L 227.5 260 L 227 259.5 L 227 229.5 L 232.5 222 L 237.5 220 Z " /><path fill="rgb(254,254,254)" stroke="rgb(254,254,254)" stroke-width="1" opacity="0.9176470588235294" d="M 257.5 220 Q 267.6 218.9 271 224.5 L 273 228.5 L 273 243 L 258 243 L 258 250.5 L 261.5 252 Q 264.8 250.8 264 247 L 273 247 L 273 252.5 L 268.5 259 Q 264.8 262.3 256.5 261 L 249 255.5 L 247 251.5 L 247 229.5 L 252.5 222 L 257.5 220 Z M 260 229 Q 257 231 258 236 L 264 236 L 264 232 Q 264 229 260 229 Z " /><path fill="rgb(254,254,254)" stroke="rgb(254,254,254)" stroke-width="1" opacity="0.9176470588235294" d="M 347.5 220 Q 358.3 219.3 362 225.5 L 363 227.5 L 363 243 L 348 243 L 348 250.5 Q 349.2 253 353 252 L 354 247 L 363 247 L 363 253.5 L 358.5 259 Q 355.2 262.2 347.5 261 Q 341.8 259.8 339 255.5 L 337 249.5 L 337 231.5 L 338 227.5 L 341.5 223 L 347.5 220 Z M 351 229 L 350 230 L 348 231 L 348 236 L 354 236 L 354 232 L 351 229 Z " /><path fill="rgb(254,254,254)" stroke="rgb(254,254,254)" stroke-width="1" opacity="0.9176470588235294" d="M 364 221 L 373.5 221 L 374 223.5 L 378.5 244 L 383 221 L 392.5 221 L 394 222.5 L 384 260 L 373.5 260 L 373 257.5 L 364 226.5 L 364 221 Z " /><path fill="rgb(254,254,254)" stroke="rgb(254,254,254)" stroke-width="1" opacity="0.9176470588235294" d="M 60 224 Q 64.7 224.5 67 228.5 L 60 239.5 L 67 249.5 L 62.5 254 L 60.5 254 L 50 238.5 L 60 224 Z " /><path fill="rgb(254,254,254)" stroke="rgb(254,254,254)" stroke-width="1" opacity="0.9176470588235294" d="M 444.5 224 L 447 225.5 L 456 239.5 L 445.5 254 L 439 249.5 L 446 240.5 L 446 238.5 L 439 228.5 L 444.5 224 Z " /><path fill="rgb(0,0,0)" stroke="rgb(0,0,0)" stroke-width="1" opacity="0" d="M 0 0 L 500 0 L 500 500 L 0 500 L 0 0 Z M 43 185 L 42 186 L 31 187 L 27 189 Q 21 192 20 200 L 20 227 L 18 230 L 11 233 L 4 233 L 4 249 L 15 250 L 20 256 L 20 282 L 23 290 L 27 293 L 36 296 L 48 296 L 48 282 L 41 280 L 38 278 L 37 274 L 37 250 L 36 248 L 33 244 L 25 241 L 32 238 L 37 232 L 37 209 L 38 205 Q 41 199 48 200 L 48 185 L 43 185 Z M 452 185 L 452 200 L 459 201 L 462 205 L 462 228 L 466 237 L 475 241 L 468 244 Q 463 247 462 254 L 462 278 L 460 280 L 454 282 L 452 283 L 452 296 Q 465 298 474 293 L 479 286 Q 478 281 480 280 L 480 255 Q 483 250 489 249 L 495 249 L 495 233 Q 488 234 484 231 L 480 228 L 480 203 L 478 194 L 470 187 L 452 185 Z M 69 207 L 69 231 L 70 234 L 77 239 L 78 240 L 78 260 L 89 260 L 89 240 L 92 238 Q 97 236 98 230 L 98 209 L 97 207 L 87 207 L 87 228 Q 86 231 82 230 L 80 229 L 80 209 L 79 207 L 69 207 Z M 190 207 L 190 255 L 191 257 L 196 260 L 205 260 L 206 259 Q 207 253 205 251 Q 201 252 200 250 L 200 208 L 200 207 L 190 207 Z M 219 207 L 214 209 L 210 214 L 210 221 L 206 221 L 206 230 L 210 231 L 210 260 L 220 260 L 220 231 L 221 230 L 226 230 L 226 221 L 220 221 Q 219 217 222 216 L 226 216 L 226 209 Q 224 206 219 207 Z M 292 207 L 292 221 L 290 220 L 282 221 Q 276 224 275 232 L 275 250 L 277 256 L 285 261 Q 294 262 299 258 L 302 253 L 302 208 L 302 207 L 292 207 Z M 306 207 L 306 260 L 326 260 L 329 259 Q 333 256 335 250 L 335 218 L 332 212 L 324 207 L 306 207 Z M 428 207 L 424 215 L 411 259 L 412 260 L 421 260 L 436 211 L 436 207 L 428 207 Z M 111 220 L 106 222 L 100 230 L 100 252 L 101 255 Q 103 260 110 261 L 121 260 Q 126 258 127 252 L 127 230 L 126 227 Q 122 219 111 220 Z M 141 220 L 136 222 L 130 230 L 130 260 L 140 260 L 141 259 L 141 231 L 143 230 L 145 230 L 146 231 L 146 259 L 148 260 L 157 260 L 157 230 L 156 227 Q 152 219 141 220 Z M 170 220 L 164 222 L 161 225 L 164 231 L 169 229 L 174 229 Q 177 231 176 236 Q 168 235 164 238 L 161 241 L 159 247 L 161 256 L 169 261 Q 177 262 182 259 L 186 254 L 186 229 L 184 225 Q 180 219 170 220 Z M 238 220 L 233 222 L 227 230 L 227 260 L 228 260 L 237 260 L 237 235 L 238 232 Q 239 229 245 230 Q 248 228 246 222 Q 244 218 238 220 Z M 258 220 L 253 222 L 247 230 L 247 252 L 249 256 L 257 261 Q 265 262 269 259 L 273 253 L 273 247 L 264 247 Q 265 251 262 252 L 258 251 L 258 243 L 273 243 L 273 229 L 271 225 Q 268 219 258 220 Z M 348 220 L 342 223 L 338 228 L 337 232 L 337 250 L 339 256 Q 342 260 348 261 Q 355 262 359 259 L 363 254 L 363 247 L 354 247 L 353 252 Q 349 253 348 251 L 348 243 L 363 243 L 363 228 L 362 226 Q 358 219 348 220 Z M 364 221 L 364 227 L 373 258 L 374 260 L 384 260 L 394 223 L 393 221 L 383 221 L 379 244 L 374 224 L 374 221 L 364 221 Z M 60 224 L 50 239 L 61 254 L 63 254 L 67 250 L 60 240 L 67 229 Q 65 224 60 224 Z M 445 224 L 439 229 L 446 239 L 446 241 L 439 250 L 446 254 L 456 240 L 447 226 L 445 224 Z " /><path fill="rgb(0,0,0)" stroke="rgb(0,0,0)" stroke-width="1" opacity="0" d="M 317 217 Q 322.5 215.8 324 219.5 L 324 247.5 L 323 250 L 317.5 250 L 317 249.5 L 317 217 Z " /><path fill="rgb(0,0,0)" stroke="rgb(0,0,0)" stroke-width="1" opacity="0" d="M 113.5 229 L 116 230 L 117 248.5 L 114.5 252 L 111 250.5 L 111 230.5 L 112.5 230 L 113.5 229 Z " /><path fill="rgb(0,0,0)" stroke="rgb(0,0,0)" stroke-width="1" opacity="0" d="M 259.5 229 Q 263.5 228.5 264 231.5 L 264 236 L 258 236 Q 256.5 230.6 259.5 229 Z " /><path fill="rgb(0,0,0)" stroke="rgb(0,0,0)" stroke-width="1" opacity="0" d="M 288.5 229 L 292 231.5 L 292 249.5 L 289.5 252 L 286 250.5 L 286 231.5 L 288.5 229 Z " /><path fill="rgb(0,0,0)" stroke="rgb(0,0,0)" stroke-width="1" opacity="0" d="M 350.5 229 L 354 231.5 L 354 236 L 348 236 L 348 230.5 L 349.5 230 L 350.5 229 Z " /><path fill="rgb(0,0,0)" stroke="rgb(0,0,0)" stroke-width="1" opacity="0" d="M 174.5 243 Q 177.5 242.5 176 249.5 L 172.5 252 Q 169 251 170 245.5 L 174.5 243 Z " /></svg>